<svg viewBox="0 0 800 600" xmlns="http://www.w3.org/2000/svg" role="img" aria-label="Abstract dashboard composition">
  <rect width="800" height="600" fill="#0b0e14"/>
  <g stroke="#1c2230" stroke-width="1">
    <line x1="0" y1="120" x2="800" y2="120"/>
    <line x1="0" y1="240" x2="800" y2="240"/>
    <line x1="0" y1="360" x2="800" y2="360"/>
    <line x1="0" y1="480" x2="800" y2="480"/>
  </g>
  <g fill="none" stroke-width="2">
    <polyline points="80,420 180,360 280,390 380,260 480,300 580,180 680,220" stroke="#5b7fff" stroke-linecap="round" stroke-linejoin="round"/>
    <polyline points="80,470 180,450 280,430 380,410 480,380 580,350 680,330" stroke="#2dd4bf" stroke-linecap="round" stroke-linejoin="round" opacity="0.7"/>
  </g>
  <g fill="#5b7fff">
    <circle cx="380" cy="260" r="5"/>
    <circle cx="580" cy="180" r="5"/>
  </g>
  <g fill="#20263380" stroke="#2a3140">
    <rect x="80" y="100" width="140" height="90" rx="8"/>
    <rect x="580" y="440" width="140" height="80" rx="8"/>
  </g>
  <g fill="#8b92a3" font-family="monospace" font-size="13">
    <text x="96" y="130">ADOPTION</text>
    <text x="596" y="470">USAGE</text>
  </g>
</svg>
